<?xml version="1.0" encoding="UTF-8"?>
<svg id="Capa_1" xmlns="http://www.w3.org/2000/svg" version="1.1" viewBox="0 0 80 80">
  <!-- Generator: Adobe Illustrator 29.5.1, SVG Export Plug-In . SVG Version: 2.1.0 Build 141)  -->
  <path d="M8.4,60.1V19.1h23c.7,0,3.9,1.4,4.7,2,6.4,4.3,5.8,13.1-.5,17.1,7.1,3.4,9.5,11.3,4.4,17.7-1.3,1.6-5.5,4.1-7.5,4.1H8.4ZM16.7,35.2h12.4c3,0,4.6-6.9,1.3-8.4s-3.8-1-4-1h-9.7v9.4ZM16.7,53.4c3.3-.2,13.5.4,15.8-1.6s1.9-6.3-.3-8-2.9-1.4-3-1.4h-12.4v11.1Z"/>
  <path d="M71.5,47.4h-19.4c-.6,3,1.4,6.2,4.2,7.2,5.6,2.1,6.8-3.8,7.2-3.9s5.9.9,6.6,1.1,1-.4.8.8c-.4,3.2-5.3,7.1-8.3,7.8-9.9,2.1-18-2.4-18.8-12.7-2-24.6,30.1-23.5,27.7-.3ZM63.7,42.9c0-9.4-12-9.5-11.6,0h11.6Z"/>
  <path d="M65.9,21.9v5.5h-15.8c-1.2,0-.8-4.5-.8-5.5h16.6Z"/>
</svg>