<?xml version="1.0" encoding="UTF-8"?>
<svg id="Capa_1" xmlns="http://www.w3.org/2000/svg" version="1.1" viewBox="0 0 70 70">
  <!-- Generator: Adobe Illustrator 29.5.1, SVG Export Plug-In . SVG Version: 2.1.0 Build 141)  -->
  <defs>
    <style>
      .st0 {
        fill: #f2e8de;
      }

      .st1 {
        fill: #1a1a1a;
      }
    </style>
  </defs>
  <path class="st0" d="M49.5,36h-7.7c.2-1.1.6-2,1.2-2.6.6-.7,1.5-1,2.7-1s1.9.3,2.6.9c.7.6,1.1,1.5,1.2,2.7Z"/>
  <path class="st0" d="M29.9,29.8c0,1-.3,1.7-1,2.1-.7.4-1.5.6-2.5.6h-5.1v-5.3h4.5c1.1,0,2.1.1,2.8.4.8.4,1.3,1.1,1.3,2.2Z"/>
  <path class="st0" d="M30.4,39.4c0,1.5-.5,2.5-1.6,3-.6.3-1.4.4-2.4.4h-5v-6.4h5.1c1,0,1.8.2,2.4.4,1,.5,1.5,1.3,1.5,2.6Z"/>
  <path class="st0" d="M35,.5C15.9.5.5,15.9.5,35s15.4,34.5,34.5,34.5,34.5-15.4,34.5-34.5S54.1.5,35,.5ZM34.5,36.2c.6,1,.9,2.1.9,3.5s-.3,2.7-1.1,3.8c-.5.7-1,1.4-1.7,1.9-.8.6-1.7,1-2.7,1.2-1,.2-2.2.3-3.4.3h-10.7v-23.8h11.5c2.9,0,5,.9,6.2,2.5.7,1,1.1,2.2,1.1,3.6s-.4,2.6-1.1,3.5c-.4.5-1,.9-1.8,1.4,1.2.4,2.1,1.1,2.8,2.1ZM54.2,38.9h-12.4c0,1.7.7,2.9,1.8,3.6.7.4,1.5.7,2.5.7s1.8-.3,2.5-.8c.4-.3.7-.7.9-1.2h4.6c-.1,1-.7,2-1.7,3.1-1.5,1.7-3.7,2.5-6.4,2.5s-4.3-.7-6-2.1c-1.7-1.4-2.6-3.7-2.6-6.9s.8-5.2,2.3-6.8c1.6-1.6,3.6-2.4,6.1-2.4s2.8.3,4,.8c1.2.5,2.2,1.4,2.9,2.5.7,1,1.2,2.2,1.4,3.5.1.8.2,1.9.1,3.4ZM40.8,26.4v-2.4h9.6v2.4h-9.6Z"/>
  <rect class="st1" x="40.8" y="24.1" width="9.6" height="2.4"/>
  <path class="st1" d="M54,35.5c-.2-1.3-.7-2.5-1.4-3.5-.8-1.2-1.8-2-2.9-2.5-1.2-.5-2.5-.8-4-.8-2.5,0-4.6.8-6.1,2.4-1.6,1.6-2.3,3.9-2.3,6.8s.9,5.4,2.6,6.9c1.7,1.4,3.7,2.1,6,2.1s4.9-.8,6.4-2.5c1-1,1.5-2.1,1.7-3.1h-4.6c-.3.5-.6.9-.9,1.2-.6.5-1.5.8-2.5.8s-1.8-.2-2.5-.7c-1.1-.7-1.7-1.9-1.8-3.6h12.4c0-1.5,0-2.6-.1-3.4ZM41.8,36c.2-1.1.6-2,1.2-2.6.6-.7,1.5-1,2.7-1s1.9.3,2.6.9c.7.6,1.1,1.5,1.2,2.7h-7.7Z"/>
  <path class="st1" d="M34.5,36.2c-.6-1-1.5-1.7-2.8-2.1.8-.4,1.4-.9,1.8-1.4.7-.9,1.1-2.1,1.1-3.5s-.4-2.6-1.1-3.6c-1.2-1.6-3.3-2.5-6.2-2.5h-11.5v23.8h10.7c1.2,0,2.3,0,3.4-.3,1-.2,1.9-.6,2.7-1.2.7-.5,1.2-1.1,1.7-1.9.7-1.1,1.1-2.4,1.1-3.8s-.3-2.5-.9-3.5ZM21.3,27.2h4.5c1.1,0,2.1.1,2.8.4.8.4,1.3,1.1,1.3,2.2s-.3,1.7-1,2.1c-.7.4-1.5.6-2.5.6h-5.1v-5.3ZM28.8,42.4c-.6.3-1.4.4-2.4.4h-5v-6.4h5.1c1,0,1.8.2,2.4.4,1,.5,1.5,1.3,1.5,2.6s-.5,2.5-1.6,3Z"/>
</svg>