<?xml version="1.0" encoding="UTF-8"?>
<svg id="Capa_1" xmlns="http://www.w3.org/2000/svg" version="1.1" viewBox="0 0 48 48">
  <!-- Generator: Adobe Illustrator 29.4.0, SVG Export Plug-In . SVG Version: 2.1.0 Build 152)  -->
  <defs>
    <style>
      .st0 {
        fill: #d00000;
      }

      .st1 {
        fill: #ece2d0;
      }
    </style>
  </defs>
  <rect class="st0" x="0" width="48" height="48"/>
  <path class="st1" d="M32.9,21.3c1.5-1,2.5-2.7,2.5-4.6,0-3-2.4-5.5-5.5-5.5h-9.4c-3,0-5.5,2.5-5.5,5.5s1,3.6,2.5,4.6c-1.5,1-2.5,2.7-2.5,4.6s1,3.6,2.5,4.6c-1.5,1-2.5,2.7-2.5,4.6,0,3,2.5,5.5,5.5,5.5s5.6-2.5,5.6-5.5v-3.6h0v-1.4c1,.9,2.3,1.4,3.7,1.4h.1c3,0,5.5-2.4,5.5-5.5s-1-3.6-2.5-4.6ZM29.9,13.1c2,0,3.7,1.6,3.7,3.7s-1.6,3.7-3.7,3.7h-3.8v-7.3h3.8ZM16.9,16.7c0-2,1.6-3.7,3.7-3.7h3.8v7.3h-3.8c-2,0-3.7-1.6-3.7-3.7ZM20.6,22.2h3.8v3.6s0,0,0,0,0,0,0,0v3.6h-3.8c-2,0-3.7-1.6-3.7-3.7s1.6-3.7,3.7-3.7ZM24.4,34.9c0,2.1-1.7,3.7-3.8,3.7s-3.7-1.6-3.7-3.7c0-2,1.6-3.7,3.7-3.7h3.8v3.6ZM29.9,29.5h-.1c-2,0-3.7-1.6-3.7-3.7s1.6-3.7,3.7-3.7h.1c2,0,3.7,1.6,3.7,3.7s-1.6,3.7-3.7,3.7Z"/>
</svg>