<?xml version="1.0" encoding="UTF-8"?>
<svg id="Capa_1" xmlns="http://www.w3.org/2000/svg" version="1.1" viewBox="0 0 80 80">
  <!-- Generator: Adobe Illustrator 29.5.1, SVG Export Plug-In . SVG Version: 2.1.0 Build 141)  -->
  <defs>
    <style>
      .st0 {
        fill: #f2e8de;
      }

      .st1 {
        fill: #1a1a1a;
      }
    </style>
  </defs>
  <polygon class="st1" points="40 .6 49.2 15.9 66.1 10.1 63.4 27.7 80 34.2 66.6 45.9 75.2 61.5 57.3 61.9 53.9 79.4 40 68.2 26.1 79.4 22.7 61.9 4.8 61.5 13.4 45.9 0 34.2 16.6 27.7 13.9 10.1 30.8 15.9 40 .6"/>
  <path class="st0" d="M55.4,38.6l-12.7-12.7c-.8-.8-2-.8-2.8,0-.8.8-.8,2,0,2.8l9.3,9.3h-23.1c-1.1,0-2,.9-2,2s.9,2,2,2h23.1l-9.3,9.3c-.8.8-.8,2,0,2.8.8.8,2,.8,2.8,0l12.7-12.7c.8-.8.8-2,0-2.8Z"/>
</svg>