<?xml version="1.0" encoding="UTF-8"?>
<svg id="Capa_1" xmlns="http://www.w3.org/2000/svg" version="1.1" viewBox="0 0 48 48">
  <!-- Generator: Adobe Illustrator 29.4.0, SVG Export Plug-In . SVG Version: 2.1.0 Build 152)  -->
  <defs>
    <style>
      .st0 {
        fill: #d00000;
      }

      .st1 {
        fill: #ece2d0;
      }
    </style>
  </defs>
  <rect class="st0" x="0" width="48" height="48"/>
  <g id="Ai">
    <g>
      <path class="st1" d="M15.2,28.3l-1.6,4.9c0,.2-.1.2-.3.2h-3c-.2,0-.2,0-.2-.3l6.1-17.5c.1-.3.2-.6.3-1.6,0-.1,0-.2.2-.2h4.1c.1,0,.2,0,.2.2l6.9,19.1c0,.2,0,.3-.2.3h-3.3c-.1,0-.2,0-.3-.2l-1.7-5h-7.1ZM21.4,25c-.6-2-2-6.1-2.6-8.2h0c-.5,2-1.7,5.5-2.6,8.2h5.2Z"/>
      <path class="st1" d="M29.8,14.7c0-1.2.9-2.1,2.1-2.1s2,.9,2,2.1-.8,2.1-2.1,2.1-2-.8-2-2.1ZM30,19c0-.1,0-.2.2-.2h3.2c.2,0,.2,0,.2.2v14.3c0,.2,0,.2-.3.2h-3.1c-.2,0-.3,0-.3-.3v-14.2Z"/>
    </g>
  </g>
</svg>