<?xml version="1.0" encoding="UTF-8"?>
<svg id="Capa_1" xmlns="http://www.w3.org/2000/svg" version="1.1" viewBox="0 0 48 48">
  <!-- Generator: Adobe Illustrator 29.4.0, SVG Export Plug-In . SVG Version: 2.1.0 Build 152)  -->
  <defs>
    <style>
      .st0 {
        fill: #d00000;
      }

      .st1 {
        fill: #ece2d0;
      }
    </style>
  </defs>
  <rect class="st0" x="0" width="48" height="48"/>
  <g id="Id">
    <g>
      <path class="st1" d="M17.8,34.2c0,.2,0,.3-.2.3h-3.1c-.2,0-.2,0-.2-.3V15.1c0-.2,0-.2.2-.2h3.1c.2,0,.2,0,.2.2v19.1Z"/>
      <path class="st1" d="M20.8,27.2c0-4.3,3.2-7.8,8.5-7.8s.8,0,1.3,0v-6.1c0-.1,0-.2.2-.2h3.2c.1,0,.1,0,.1.2v18c0,.6,0,1.4.1,1.9,0,.1,0,.2-.2.3-1.9.8-3.8,1.2-5.6,1.2-4.3,0-7.6-2.5-7.6-7.5ZM30.5,22.7c-.4-.1-.9-.2-1.4-.2-2.7,0-4.7,1.7-4.7,4.6s1.9,4.6,4.3,4.6,1.2,0,1.7-.2v-8.7Z"/>
    </g>
  </g>
</svg>