<?xml version="1.0" encoding="UTF-8"?>
<svg id="Capa_1" xmlns="http://www.w3.org/2000/svg" version="1.1" viewBox="0 0 80 80">
  <!-- Generator: Adobe Illustrator 29.5.1, SVG Export Plug-In . SVG Version: 2.1.0 Build 141)  -->
  <path d="M14.7,14.8c2.1-2,6.7-4.2,9.5-4.6,6.9-.8,22.2-.7,29.3,0,8,.7,14.8,7.3,15.7,15.3s.7,21.3,0,28.2c-.6,6.5-4.7,12.8-10.9,15.1s-25.5,1.8-32,1.2c-7.1-.6-13.8-4.6-16-11.6-1.6-5-1.4-26.3-.9-32.4s2.5-8.6,5.2-11.1ZM23.7,16.4c-3.6.6-7.6,4.9-8.1,8.5-.8,6-.7,23.7,0,29.8s4.8,8.6,9.1,9.1,22.7.7,28.8,0,9.1-4.6,9.7-9.7c.7-6,.7-22.8,0-28.8-.5-4-4.6-8.5-8.6-9.1-5.3-.7-25.6-.8-30.8,0Z"/>
  <path d="M49.7,28.1c17.3,15.3-9.9,40-23.3,20.8-10.5-15,10-32.6,23.3-20.8ZM37.6,30.2c-7.9,1.3-10.9,11.5-5.1,17,7.7,7.4,20.2-1.4,15.9-11.4-1.7-4-6.5-6.3-10.8-5.6Z"/>
  <path d="M51.7,21.4c4.2-4.5,11,3.4,5.7,6.5-4.8,2.9-8.8-3.1-5.7-6.5Z"/>
</svg>