<?xml version="1.0" encoding="UTF-8"?>
<svg id="Capa_1" xmlns="http://www.w3.org/2000/svg" version="1.1" viewBox="0 0 70 70">
  <!-- Generator: Adobe Illustrator 29.5.1, SVG Export Plug-In . SVG Version: 2.1.0 Build 141)  -->
  <defs>
    <style>
      .st0 {
        fill: #f2e8de;
      }

      .st1 {
        fill: #1a1a1a;
      }
    </style>
  </defs>
  <path class="st0" d="M43.7,17.3h-17.4c-4.9,0-9,4-9,9v17.4c0,4.9,4,9,9,9h17.4c4.9,0,9-4,9-9v-17.4c0-4.9-4-9-9-9ZM35,46.4c-6.3,0-11.4-5.1-11.4-11.4s5.1-11.4,11.4-11.4,11.4,5.1,11.4,11.4-5.1,11.4-11.4,11.4ZM46,25.5c-1.3,0-2.3-1-2.3-2.3s1-2.3,2.3-2.3,2.3,1,2.3,2.3-1,2.3-2.3,2.3Z"/>
  <circle class="st0" cx="35" cy="35" r="8.3"/>
  <path class="st0" d="M35,.5C15.9.5.5,15.9.5,35s15.5,34.5,34.5,34.5,34.5-15.5,34.5-34.5S54.1.5,35,.5ZM55.7,43.7c0,6.6-5.4,12-12,12h-17.4c-6.6,0-12-5.4-12-12v-17.4c0-6.6,5.4-12,12-12h17.4c6.6,0,12,5.4,12,12v17.4Z"/>
  <path class="st1" d="M43.7,14.3h-17.4c-6.6,0-12,5.4-12,12v17.4c0,6.6,5.4,12,12,12h17.4c6.6,0,12-5.4,12-12v-17.4c0-6.6-5.4-12-12-12ZM52.7,43.7c0,4.9-4,9-9,9h-17.4c-4.9,0-9-4-9-9v-17.4c0-4.9,4-9,9-9h17.4c4.9,0,9,4,9,9v17.4Z"/>
  <path class="st1" d="M48.3,23.2c0,1.3-1,2.3-2.3,2.3s-2.3-1-2.3-2.3,1-2.3,2.3-2.3,2.3,1,2.3,2.3Z"/>
  <path class="st1" d="M35,23.6c-6.3,0-11.4,5.1-11.4,11.4s5.1,11.4,11.4,11.4,11.4-5.1,11.4-11.4-5.1-11.4-11.4-11.4ZM35,43.3c-4.6,0-8.3-3.7-8.3-8.3s3.7-8.3,8.3-8.3,8.3,3.7,8.3,8.3-3.7,8.3-8.3,8.3Z"/>
</svg>