<?xml version="1.0" encoding="UTF-8"?>
<svg id="Capa_1" xmlns="http://www.w3.org/2000/svg" version="1.1" viewBox="0 0 48 48">
  <!-- Generator: Adobe Illustrator 29.4.0, SVG Export Plug-In . SVG Version: 2.1.0 Build 152)  -->
  <defs>
    <style>
      .st0 {
        fill: #d00000;
      }

      .st1 {
        fill: #ece2d0;
      }
    </style>
  </defs>
  <rect class="st0" x="0" width="48" height="48"/>
  <g id="Lr">
    <g>
      <path class="st1" d="M13.8,32c-.2,0-.3,0-.3-.3V12.7c0-.1,0-.3.2-.3h3.2c.1,0,.2,0,.2.2v16.1h8.8c.2,0,.2,0,.2.2l-.5,2.8c0,.2-.1.2-.3.2h-11.5Z"/>
      <path class="st1" d="M31,17.3c.2,0,.3,0,.3.2.1.4.3,1.1.3,1.8,1-1.3,2.7-2.3,4.8-2.3s.2,0,.2.2v3.2c0,.1,0,.2-.3.2-2.1,0-3.9.7-4.6,1.6v9.6c0,.2,0,.2-.3.2h-3.1c-.2,0-.3,0-.3-.2v-10.3c0-1.3,0-3-.1-4,0-.1,0-.2.2-.2h2.8Z"/>
    </g>
  </g>
</svg>