<?xml version="1.0" encoding="UTF-8"?>
<svg id="Capa_1" xmlns="http://www.w3.org/2000/svg" version="1.1" viewBox="0 0 70 70">
  <!-- Generator: Adobe Illustrator 29.5.1, SVG Export Plug-In . SVG Version: 2.1.0 Build 141)  -->
  <defs>
    <style>
      .st0 {
        fill: #f2e8de;
      }

      .st1 {
        fill: #1a1a1a;
      }
    </style>
  </defs>
  <polygon class="st0" points="35 .5 43.1 13.9 57.8 8.9 55.4 24.3 70 29.9 58.2 40.2 65.8 53.8 50.2 54.2 47.2 69.5 35 59.7 22.8 69.5 19.8 54.2 4.2 53.8 11.8 40.2 0 29.9 14.6 24.3 12.2 8.9 26.9 13.9 35 .5"/>
  <path class="st1" d="M38.5,51.6c-1.8,0-4.7-.2-7.4-.6-3.4-.5-7-1.1-7.8-1.5-.8-.3-2.1-1.3-2.8-2.1-.9-.9-1.5-2.3-1.9-4.1-.4-2.1-.4-3.1,0-4.2.4-.8,1.4-1.8,2.4-2.4.9-.6,2.4-1,3.2-1s2.7.8,4.4,1.7c1.7.9,3.9,2.1,5.1,2.4,1.3.5,3.3.7,4.5.7h.2c1.2,0,2.6-.2,3.2-.5.6-.3,1.1-.8,1.1-.9s-.5-.9-1.2-1.6c-.7-.7-3.2-1.8-5.3-2.6-2.4-.8-4.8-1.9-5.7-2.4-.9-.6-2.1-1.8-2.8-2.7-1.1-1.5-1.2-2.2-.9-4,.2-1.4.8-2.9,1.3-3.5.6-.8,2.1-1.7,3.2-2.2,1.3-.6,3.5-1.1,5.2-1.4,1.9-.2,2.8-.3,3.1-.3s2.2.5,3,.6c1.5.3,3.5,1,4.4,1.5.9.5,2.1,1.3,2.8,1.8.6.6,1.3,1.4,1.7,1.8.4.7.4,1.4,0,2.1-.4.6-1.3,1.4-2.1,1.7-.6.2-.9.3-1.4.3-.7,0-1.4-.3-3.2-1.1-2.2-1.1-3.5-1.5-6.1-1.6h-1.2c-1.5,0-2.5.1-3,.6-.2.2-.5.3-.6.5,0,0,.4.2.5.3.6.2,2.7.9,5,1.5,2.2.6,4.8,1.5,6,2.3,1.1.7,3,2.4,4.3,3.8,2.4,2.5,2.5,2.7,2.5,5.5s-.2,3.5-.6,4.6c-.4.9-1.2,2.5-2,3.4-1.1,1.3-2.4,1.9-4.5,2.6-1.5.6-4,1-5.2,1.3h-.9ZM24.2,37.5c-.6,0-1.5.3-2.4.8-.7.5-1.4,1-1.5,1.6-.4.7-.4,1.4,0,3.2.2,1.6.7,2.5,1.4,3.2.6.7,1.5,1.4,2.2,1.7.6.2,3.9.9,7.3,1.4,2.7.3,5.6.6,7.1.6s.7,0,.8,0c1.1-.1,3.3-.7,5-1.1,1.9-.6,2.8-1.1,3.7-2.2.7-.8,1.4-2.1,1.7-2.9.4-.8.5-2.7.5-4.1s-.7-2.9-2-4.3c-1.2-1.4-3-2.9-3.9-3.4-.8-.6-3.2-1.5-5.4-2.1-2.5-.7-5-1.4-5.4-1.6-1.1-.6-1.5-1.1-1.5-1.8s.4-1.3,1.3-2.1c.8-.6,2-.9,4.1-.9s.8,0,1.2,0c2.8.1,4.5.6,7,1.8,1.4.7,1.9,1,2.4,1s.4,0,.7-.2c.6-.2,1.1-.7,1.2-.8h0c-.1-.5-.6-.9-1.3-1.5-.6-.5-1.7-1.1-2.5-1.6-.8-.3-2.6-1-4-1.4-1.1-.2-2.1-.5-2.5-.6-.6.1-1.4.2-2.4.3h-.6c-1.5.2-3.5.8-4.6,1.3-1.2.6-2.2,1.3-2.5,1.7-.4.3-.8,1.4-.9,2.6-.2,1.6-.2,1.7.6,2.9.6.8,1.7,1.8,2.2,2.3.7.5,3.1,1.4,5.3,2.3,2.5.9,5.1,2.2,6,3,.7.7,1.8,1.8,1.8,2.9s-.8,1.9-2.1,2.5c-.8.3-2.5.7-3.9.7s-.2,0-.4,0c-1.4,0-3.7-.3-5-.7-1.4-.5-3.8-1.6-5.6-2.5-1.5-.9-2.8-1.5-3.3-1.5l.2-.5ZM38.3,49.3c-1.5,0-4.4-.2-7.1-.6-3.4-.5-6.6-1-7.1-1.3-.6-.3-1.5-.9-2.1-1.6-.7-.7-.9-1.4-1.3-3-.4-1.7-.4-2.3,0-3,.2-.5.7-.9,1.4-1.3.7-.3,1.5-.7,2.1-.8.5,0,1.8.7,3.1,1.4,1.8,1,4.4,2.2,5.7,2.5,1.5.5,3.9.8,5.2.8h.2c1.5,0,3.3-.3,4.1-.7,1.5-.7,2.4-1.8,2.4-3s-.7-2.2-2-3.2c-.9-.9-3.7-2.3-6.1-3.1-2.2-.8-4.6-1.7-5.3-2.2-.7-.5-1.7-1.4-2.1-2.1q-.7-1-.6-2.5c.1-1,.6-2.2.8-2.4.2-.5,1.4-1.1,2.4-1.5,1.1-.5,3.1-1,4.5-1.1h.6c.8,0,1.7-.2,2.2-.2h.5c.5,0,1.2.2,1.9.3,1.5.3,3.2.9,3.9,1.3.7.3,1.8,1,2.4,1.5.4.3.7.7.9,1v.2c-.1.2-.7.5-.9.6-.1,0-.4.1-.5.1-.4,0-.7-.2-2.1-.9-2.5-1.3-4.3-1.7-7.2-1.9h-1.1c-2.2,0-3.7.2-4.6.9-1.1.8-1.7,1.6-1.5,2.4,0,.8.7,1.5,1.9,2.2.5.2,3,1,5.6,1.6,2,.6,4.4,1.4,5.2,1.9.9.6,2.6,2.1,3.8,3.4,1.8,1.9,1.9,1.9,1.9,4s-.1,3.1-.5,4c-.2.8-.8,1.9-1.5,2.7-.8.9-1.5,1.4-3.4,1.9-1.5.5-3.8,1-4.8,1.1h-.8l.2.2Z"/>
</svg>