<?xml version="1.0" encoding="UTF-8"?>
<svg id="Capa_1" xmlns="http://www.w3.org/2000/svg" version="1.1" viewBox="0 0 48 48">
  <!-- Generator: Adobe Illustrator 29.4.0, SVG Export Plug-In . SVG Version: 2.1.0 Build 152)  -->
  <defs>
    <style>
      .st0 {
        fill: #d00000;
      }

      .st1 {
        fill: #ece2d0;
      }
    </style>
  </defs>
  <rect class="st0" x="0" width="48" height="48"/>
  <g>
    <path class="st1" d="M11.5,14.1c0-.1,0-.2.2-.2,1.1,0,3.3,0,5.5,0,5.8,0,7.9,3.2,7.9,6.5,0,4.7-3.7,6.8-8.2,6.8h-1.9v6.1c0,.1,0,.2-.2.2h-3.1c-.1,0-.2,0-.2-.2V14.1ZM15.1,23.9c.5,0,.9,0,1.9,0,2.5,0,4.6-.8,4.6-3.5s-1.6-3.5-4.3-3.5-1.9,0-2.2,0v6.9Z"/>
    <path class="st1" d="M33.1,21.3c-1.6,0-2.1.7-2.1,1.3s.4,1.1,2.4,1.8c3.4,1.3,4.6,2.6,4.6,4.7s-2.2,4.6-5.9,4.6-3.3-.3-4.2-.8c-.1,0-.2-.1-.2-.3v-2.8c0-.1.1-.2.2-.1,1.3.8,2.9,1.2,4.3,1.2s2.3-.5,2.3-1.3-.6-1.2-2.4-2c-3.2-1.2-4.4-2.5-4.4-4.7s1.8-4.4,5.6-4.4,3,.2,3.8.6c.1,0,.2.2.2.4v2.6c0,.1,0,.2-.3.2-.9-.5-2.4-.9-3.7-.9Z"/>
  </g>
</svg>